<svg xmlns:svg="http://www.w3.org/2000/svg" xmlns="http://www.w3.org/2000/svg" version="1.1" viewBox="0 0 137.2 137.2"><path fill="#ffffff" d="M23.1,45.9h-7.9v-8h25.7v8h-8.2v47.8h7.3v8H15.1v-8h7.9V45.9z M53.4,45.9h-7.3v-8h24.9v8h-6.7L44.8,67.9 l20,25.7h6.8v8H45.8v-8h6.8L33.1,67.9L53.4,45.9z"/><path fill="#ffffff" d="M125.3,80.3c-3.7,13.9-15.4,22.3-30.7,22.3c-18.8,0-31.8-13.5-31.8-32.9c0-19.8,12.5-33,31.6-33 c8,0,15.4,2.4,20.9,6.9v-5.8h8.2v20.5h-8.2c-3.6-8.1-11.5-13.1-20.5-13.1c-12.6,0-21.6,10.1-21.6,24.2c0,13.9,9.4,24.5,22,24.5 c8.6,0,18.6-5.7,21.8-18.3L125.3,80.3z"/></svg>
